Coordinates
version=1
nRows=26
nColumns=24
inDegrees=yes

Units are S.I. units (second, meters, Newtons, ...)
Angles are in degrees.

endheader
time	pelvis_tilt	pelvis_list	pelvis_rotation	pelvis_tx	pelvis_ty	pelvis_tz	hip_flexion_r	hip_adduction_r	hip_rotation_r	knee_angle_r	ankle_angle_r	subtalar_angle_r	mtp_angle_r	hip_flexion_l	hip_adduction_l	hip_rotation_l	knee_angle_l	ankle_angle_l	subtalar_angle_l	mtp_angle_l	lumbar_extension	lumbar_bending	lumbar_rotation
      0.57900000	      1.11418533	      7.09491653	     -5.34451481	     -0.78639094	      0.97976596	      0.31115560	     23.68151401	     -5.40019962	      0.84237108	     -0.06729597	      0.91959649	     -0.75034879	      9.38090445	    -20.24430727	     13.10340712	      7.52399324	     -0.89958109	     10.27185203	    -15.39139248	     -3.05134290	    -12.40337365	      0.16869447	     -8.89460944
      0.58316667	      1.04711459	      6.95448544	     -5.34743151	     -0.78071692	      0.97904110	      0.31158332	     23.73257102	     -5.18344621	      1.12063930	     -0.31406403	      0.72503275	     -0.93202632	      9.39633922	    -20.26713797	     12.96426061	      7.34373960	     -1.45750872	     10.54415409	    -15.07302787	     -2.99259250	    -12.32403306	      0.36450240	     -8.86425674
      0.58733333	      0.98237035	      6.80014716	     -5.35306770	     -0.77501197	      0.97836635	      0.31202672	     23.79203906	     -4.95325206	      1.41189835	     -0.65776657	      0.51566418	     -1.13794687	      9.41567698	    -20.27225147	     12.81209025	      7.13742862	     -2.05511004	     10.81415976	    -14.72643133	     -2.91327453	    -12.25227006	      0.57534303	     -8.81879803
      0.59150000	      0.91573401	      6.63158372	     -5.35873723	     -0.76928028	      0.97772568	      0.31248757	     23.86132501	     -4.70793328	      1.71882278	     -1.08308394	      0.26055444	     -1.40535037	      9.43897536	    -20.25791785	     12.64558994	      6.91206852	     -2.69408538	     11.08497967	    -14.35844357	     -2.81330105	    -12.17596371	      0.80199100	     -8.76852608
      0.59566667	      0.85575366	      6.45298497	     -5.36645469	     -0.76352693	      0.97713115	      0.31296628	     23.93660234	     -4.45229190	      2.02443192	     -1.59320467	     -0.02909975	     -1.71364676	      9.46572398	    -20.22563129	     12.47018767	      6.66007306	     -3.38415840	     11.34114267	    -13.99576552	     -2.69048774	    -12.10580410	      1.04328162	     -8.71468211
      0.59983333	      0.78164830	      6.26380578	     -5.37337200	     -0.75772442	      0.97656357	      0.31345596	     24.03426109	     -4.18389591	      2.33222375	     -2.17272858	     -0.35797798	     -2.06239425	      9.49373081	    -20.16749642	     12.28327588	      6.41388328	     -4.09882843	     11.56113081	    -13.64983144	     -2.54626274	    -12.02089298	      1.29268670	     -8.65583694
      0.60400000	      0.72232580	      6.05855119	     -5.38445910	     -0.75190026	      0.97604346	      0.31397424	     24.12366048	     -3.89739500	      2.63914709	     -2.81265761	     -0.71615285	     -2.45722617	      9.52274259	    -20.10552480	     12.08103589	      6.13734161	     -4.85643814	     11.76905669	    -13.29004806	     -2.37375835	    -11.95518496	      1.55845352	     -8.58677718
      0.60816667	      0.65094686	      5.85717602	     -5.39434539	     -0.74603440	      0.97554885	      0.31450214	     24.23944879	     -3.61341926	      2.93012646	     -3.51730960	     -1.09210910	     -2.86944065	      9.55088974	    -20.01619935	     11.88204412	      5.87156502	     -5.64029172	     11.92795428	    -12.96850910	     -2.17645002	    -11.86350403	      1.82875331	     -8.51886608
      0.61233333	      0.60102306	      5.64087547	     -5.39488515	     -0.74015654	      0.97512827	      0.31504230	     24.32836108	     -3.31895515	      3.20770910	     -4.24756883	     -1.48518541	     -3.31728585	      9.58439753	    -19.91211432	     11.66325606	      5.56079457	     -6.49977636	     12.08410191	    -12.60232226	     -1.90410514	    -11.81854847	      2.10127676	     -8.45074446
      0.61650000	      0.51815605	      5.42628352	     -5.41644948	     -0.73420926	      0.97467304	      0.31559884	     24.48631029	     -3.01355133	      3.46466505	     -5.07441975	     -1.87678252	     -3.75514767	      9.60454648	    -19.79338959	     11.45635070	      5.32735128	     -7.32113898	     12.14570809	    -12.37259826	     -1.67240040	    -11.70028068	      2.39047228	     -8.37631120
      0.62066667	      0.44956954	      5.20666662	     -5.42477698	     -0.72825548	      0.97428808	      0.31617235	     24.62121444	     -2.70788819	      3.71034927	     -5.90734360	     -2.27465216	     -4.24143949	      9.62261425	    -19.64420895	     11.23526428	      5.02458288	     -8.23059415	     12.20448287	    -12.06796606	     -1.37769474	    -11.61359829	      2.67809698	     -8.29824627
      0.62483333	      0.38850459	      4.97842735	     -5.43162729	     -0.72227145	      0.97393787	      0.31675275	     24.75343061	     -2.39450689	      3.93096974	     -6.77315272	     -2.65575989	     -4.72834768	      9.63545289	    -19.48736466	     11.00564763	      4.73332446	     -9.17857706	     12.21615280	    -11.79130926	     -1.03266944	    -11.53331487	      2.97244284	     -8.22217563
      0.62900000	      0.32843408	      4.75100298	     -5.44020195	     -0.71624668	      0.97363171	      0.31734887	     24.89082897	     -2.08134337	      4.13015053	     -7.67068796	     -3.00318547	     -5.20509934	      9.64014090	    -19.32110897	     10.77606052	      4.44772346	    -10.13267541	     12.16156274	    -11.56375624	     -0.65279348	    -11.45174933	      3.26800207	     -8.14561462
      0.63316667	      0.26874988	      4.52067139	     -5.44187617	     -0.71021191	      0.97335637	      0.31793934	     25.03050316	     -1.76815416	      4.30194840	     -8.58840575	     -3.31613264	     -5.67555908	      9.63622848	    -19.12661049	     10.54138744	      4.16544724	    -11.14880782	     12.06408653	    -11.34889691	     -0.21892221	    -11.37070708	      3.56277523	     -8.07359470
      0.63733333	      0.26999434	      4.26444127	     -5.44782096	     -0.70414250	      0.97319681	      0.31854581	     25.09899004	     -1.43662630	      4.43663450	     -9.51737200	     -3.52291701	     -6.08345082	      9.54405933	    -18.98677693	     10.27922593	      3.84936139	    -12.17100441	     11.80939286	    -11.19734741	      5.02905874	    -11.37251390	      3.88512177	     -7.98224456
      0.64150000	      0.20482940	      4.04390385	     -5.43590205	     -0.69805842	      0.97300009	      0.31912210	     25.24808226	     -1.14055623	      4.54837718	    -10.46753048	     -3.74267847	     -6.51109916	      9.52799281	    -18.74944049	     10.05212727	      3.62183519	    -13.24027481	     11.53579119	    -11.13837107	      5.08996776	    -11.27315993	      4.17971383	     -7.93654427
      0.64566667	      0.17826666	      3.79891662	     -5.43324205	     -0.69193749	      0.97288867	      0.31971052	     25.34769463	     -0.82159993	      4.65351295	    -11.42665423	     -3.80793390	     -6.89277674	      9.51192436	    -18.54232079	      9.80384876	      3.38377681	    -14.32713063	     11.20744863	    -11.09354488	      5.17112505	    -11.22231355	      4.51564426	     -7.87337031
      0.64983333	      0.13482781	      3.57929272	     -5.39674803	     -0.68587566	      0.97280232	      0.32030554	     25.45560642	     -0.53623622	      4.73278491	    -12.35554349	     -3.96227729	     -7.33322060	      9.46817331	    -18.23876830	      9.55135374	      3.06002602	    -15.55766342	     10.93244927	    -10.84019649	      5.40291421	    -11.15430678	      4.77998878	     -7.81075674
      0.65400000	      0.11147747	      3.33625110	     -5.37123443	     -0.67977231	      0.97278285	      0.32090015	     25.53025998	     -0.22684087	      4.80772774	    -13.28386539	     -3.95915865	     -7.70809234	      9.41191325	    -17.95497043	      9.28115078	      2.76079895	    -16.78120457	     10.53475607	    -10.69300454	      5.71526091	    -11.10625544	      5.09309694	     -7.75793982
      0.65816667	      0.14295388	      3.06419785	     -5.33715732	     -0.67364989	      0.97290000	      0.32150571	     25.51722565	      0.10487875	      4.87075964	    -14.17374015	     -3.89061232	     -8.13701177	      8.53667548	    -17.71619684	      8.97232443	      2.45306161	    -18.00714084	      9.95254228	    -10.60644158	     10.50389079	    -11.14005442	      5.43661775	     -7.67953292
      0.66233333	      0.12708332	      2.82613167	     -5.28453146	     -0.66754406	      0.97298296	      0.32206163	     25.56911159	      0.39179236	      4.87304399	    -15.09209840	     -3.71355865	     -8.35933277	      8.51901739	    -17.37493521	      8.69049900	      2.16853385	    -19.32598933	      9.38292276	    -10.52242278	     10.57310082	    -11.09246038	      5.74308791	     -7.65285871
      0.66650000	      0.13224380	      2.56109392	     -5.20119657	     -0.66144692	      0.97315373	      0.32261575	     25.56478932	      0.69636689	      4.85754159	    -15.95858773	     -3.49148524	     -8.69020304	      8.44206135	    -17.02119924	      8.35654351	      1.86839583	    -20.70573393	      8.81283180	    -10.28554780	     10.89334335	    -11.08074011	      6.08012210	     -7.62072227
      0.67066667	      0.17215239	      2.29462647	     -5.15935662	     -0.65534679	      0.97341095	      0.32318899	     25.51628990	      1.01316710	      4.87622489	    -16.81256965	     -3.19611567	     -8.93650675	      8.41990313	    -16.70553495	      8.04329283	      1.59230492	    -22.04614992	      8.03352402	    -10.28893671	     10.99641005	    -11.12158543	      6.41956720	     -7.57139331
      0.67483333	      0.17579647	      2.02272296	     -5.07513181	     -0.64929917	      0.97366637	      0.32379309	     25.46862869	      1.33365796	      4.89663677	    -17.59110621	     -2.92446367	     -9.30893670	      7.30458807	    -16.26494696	      7.66713962	      1.19453776	    -23.52992210	      7.24486757	    -10.07284406	     15.66786003	    -11.10335589	      6.75043206	     -7.51813192
      0.67900000	      0.22190923	      1.75171163	     -4.99449695	     -0.64324172	      0.97401736	      0.32433929	     25.37663048	      1.63746706	      4.86135739	    -18.38224218	     -2.48431878	     -9.46575013	      7.29786491	    -15.87705148	      7.31180996	      0.90375920	    -24.98199521	      6.34722129	     -9.98532799	     15.70020029	    -11.15266892	      7.07921880	     -7.48192964
      0.68316667	      0.23336730	      1.49444397	     -4.89986305	     -0.63724433	      0.97434530	      0.32488853	     25.30295734	      1.92705032	      4.82439734	    -19.12457284	     -2.04716180	     -9.64471699	      7.26302195	    -15.38719237	      6.93669856	      0.53636352	    -26.53601517	      5.46768990	     -9.76559464	     15.83271441	    -11.13445923	      7.40241631	     -7.45882212
